<svg xmlns="http://www.w3.org/2000/svg" xmlns:xlink="http://www.w3.org/1999/xlink" width="700" zoomAndPan="magnify" viewBox="0 0 525 525.000007" height="700" preserveAspectRatio="xMidYMid meet" version="1.0"><defs><clipPath id="cc7a7c82a5"><path d="M 107 318 L 175 318 L 175 368.988281 L 107 368.988281 Z M 107 318 " clip-rule="nonzero"/></clipPath><clipPath id="c23327241d"><path d="M 75.355469 74.859375 L 449.222656 74.859375 L 449.222656 448.726562 L 75.355469 448.726562 Z M 75.355469 74.859375 " clip-rule="nonzero"/></clipPath><clipPath id="80ba22943e"><path d="M 302 184 L 334 184 L 334 261 L 302 261 Z M 302 184 " clip-rule="nonzero"/></clipPath><clipPath id="2a3e35474b"><path d="M 280.039062 198.765625 L 310.191406 179.136719 L 354.566406 247.3125 L 324.414062 266.9375 Z M 280.039062 198.765625 " clip-rule="nonzero"/></clipPath><clipPath id="7bbaf147b4"><path d="M 280.039062 198.765625 L 310.191406 179.136719 L 354.566406 247.3125 L 324.414062 266.9375 Z M 280.039062 198.765625 " clip-rule="nonzero"/></clipPath><clipPath id="68eeac41e3"><path d="M 280.050781 198.785156 L 310.253906 179.125 L 354.617188 247.277344 L 324.414062 266.9375 Z M 280.050781 198.785156 " clip-rule="nonzero"/></clipPath><clipPath id="58f10bd447"><path d="M 280.050781 198.785156 L 310.207031 179.15625 L 354.554688 247.289062 L 324.398438 266.917969 Z M 280.050781 198.785156 " clip-rule="nonzero"/></clipPath></defs><path fill="#ffde59" d="M 206 356.492188 C 202.324219 356.492188 198.621094 356.128906 194.933594 355.402344 C 180.183594 352.480469 167.449219 344 159.085938 331.519531 C 150.722656 319.039062 147.726562 304.050781 150.648438 289.320312 C 153.574219 274.589844 162.066406 261.875 174.566406 253.523438 L 200.570312 236.148438 C 202.421875 234.914062 204.683594 234.464844 206.863281 234.898438 C 209.046875 235.328125 210.964844 236.605469 212.199219 238.453125 L 265.503906 317.992188 C 268.078125 321.835938 267.046875 327.03125 263.203125 329.601562 L 237.195312 346.976562 C 227.820312 353.242188 217.03125 356.492188 206 356.492188 Z M 206 356.492188 " fill-opacity="1" fill-rule="nonzero"/><path fill="#ffde59" d="M 225.921875 269.539062 C 223.21875 269.539062 220.566406 268.234375 218.949219 265.824219 C 216.375 261.984375 217.40625 256.785156 221.253906 254.214844 L 254.171875 232.21875 C 258.019531 229.648438 263.222656 230.679688 265.796875 234.519531 C 268.371094 238.359375 267.339844 243.558594 263.492188 246.128906 L 230.578125 268.125 C 229.144531 269.078125 227.527344 269.539062 225.921875 269.539062 Z M 225.921875 269.539062 " fill-opacity="1" fill-rule="nonzero"/><path fill="#ffde59" d="M 249.714844 305.035156 C 247.011719 305.035156 244.355469 303.730469 242.742188 301.320312 C 240.164062 297.480469 241.199219 292.28125 245.042969 289.710938 L 277.960938 267.714844 C 281.808594 265.144531 287.011719 266.175781 289.585938 270.015625 C 292.164062 273.855469 291.128906 279.054688 287.285156 281.625 L 254.367188 303.621094 C 252.933594 304.578125 251.316406 305.035156 249.714844 305.035156 Z M 249.714844 305.035156 " fill-opacity="1" fill-rule="nonzero"/><g clip-path="url(#cc7a7c82a5)"><path fill="#ffde59" d="M 115.621094 368.933594 C 112.917969 368.933594 110.265625 367.632812 108.648438 365.21875 C 106.074219 361.378906 107.105469 356.179688 110.953125 353.609375 L 161.390625 319.910156 C 165.238281 317.339844 170.441406 318.367188 173.015625 322.210938 C 175.589844 326.050781 174.558594 331.25 170.714844 333.820312 L 120.277344 367.519531 C 118.84375 368.476562 117.226562 368.933594 115.621094 368.933594 Z M 115.621094 368.933594 " fill-opacity="1" fill-rule="nonzero"/></g><path fill="#0b5884" d="M 319.765625 290.105469 C 319.222656 290.105469 318.679688 290.050781 318.140625 289.945312 C 315.957031 289.511719 314.039062 288.234375 312.804688 286.386719 L 259.496094 206.847656 C 256.921875 203.007812 257.953125 197.808594 261.800781 195.238281 L 287.804688 177.863281 C 300.308594 169.507812 315.316406 166.519531 330.066406 169.4375 C 344.820312 172.359375 357.554688 180.839844 365.914062 193.320312 C 374.28125 205.800781 377.277344 220.789062 374.351562 235.519531 C 371.429688 250.25 362.933594 262.964844 350.4375 271.3125 L 324.429688 288.6875 C 323.042969 289.617188 321.414062 290.101562 319.769531 290.101562 Z M 319.765625 290.105469 " fill-opacity="1" fill-rule="nonzero"/><path fill="#0b5884" d="M 358.957031 206.347656 C 356.253906 206.347656 353.597656 205.042969 351.984375 202.632812 C 349.410156 198.789062 350.441406 193.59375 354.285156 191.019531 L 404.722656 157.320312 C 408.570312 154.75 413.777344 155.78125 416.351562 159.621094 C 418.925781 163.460938 417.894531 168.660156 414.046875 171.230469 L 363.609375 204.929688 C 362.175781 205.886719 360.558594 206.347656 358.957031 206.347656 Z M 358.957031 206.347656 " fill-opacity="1" fill-rule="nonzero"/><g clip-path="url(#c23327241d)"><path fill="#0b5884" d="M 262.289062 448.726562 C 159.015625 448.726562 75.355469 364.488281 75.355469 261.792969 C 75.355469 159.09375 159.015625 74.859375 262.289062 74.859375 C 365.566406 74.859375 449.222656 158.515625 449.222656 261.792969 C 449.222656 365.066406 364.988281 448.726562 262.289062 448.726562 Z M 262.289062 86.398438 C 165.363281 86.398438 86.894531 164.863281 86.894531 261.792969 C 86.894531 358.71875 165.363281 437.1875 262.289062 437.1875 C 359.21875 437.1875 437.683594 358.71875 437.683594 261.792969 C 437.683594 164.863281 358.640625 86.398438 262.289062 86.398438 Z M 262.289062 86.398438 " fill-opacity="1" fill-rule="nonzero"/></g><g clip-path="url(#80ba22943e)"><g clip-path="url(#2a3e35474b)"><g clip-path="url(#7bbaf147b4)"><g clip-path="url(#68eeac41e3)"><g clip-path="url(#58f10bd447)"><path fill="#ffde59" d="M 302.3125 184.292969 L 309.171875 243.527344 L 321.671875 235.496094 L 333.664062 260.886719 L 331.59375 212.011719 L 318.6875 219.863281 L 302.3125 184.292969 " fill-opacity="1" fill-rule="nonzero"/></g></g></g></g></g></svg>